Gaayam (1993) DvdRip Telugu Movie Torrent - teluguppls.blogspot.com


FOR SCREENSHOTS SEE THIS
 
http://teluguppls.blogspot.com/2011/04/gaayam-1993-dvdrip-telugu-movie-torrent.html



Description


General
Complete name                    : E:\Movies\Gayam (1993)\Gaayam DvdRip - teluguppls.blogspot.com.avi
Format                           : AVI
Format/Info                      : Audio Video Interleave
File size                        : 648 MiB
Duration                         : 2h 13mn
Overall bit rate                 : 680 Kbps
Writing library                  : VirtualDub build 30586/release

Video

Format                           : MPEG-4 Visual
Format settings, Matrix          : Default (H.263)
Codec ID/Hint                    : DivX 5
Duration                         : 2h 13mn
Bit rate                         : 533 Kbps
Width                            : 640 pixels
Height                           : 288 pixels
Display aspect ratio             : 2.222
Frame rate                       : 29.970 fps
Color space                      : YUV
Chroma subsampling               : 4:2:0
Bit depth                        : 8 bits
Compression mode                 : Lossy
Bits/(Pixel*Frame)               : 0.097
Stream size                      : 508 MiB (78%)



Audio

Format                           : MPEG Audio
Mode extension                   : MS Stereo
Codec ID                         : 55
Codec ID/Hint                    : MP3
Duration                         : 2h 13mn
Bit rate mode                    : Variable
Bit rate                         : 128 Kbps
Channel(s)                       : 2 channels
Sampling rate                    : 48.0 KHz
Compression mode                 : Lossy
Stream size                      : 127 MiB (20%)
Interleave, duration             : 24 ms (0.72 video frame)
Interleave, preload duration     : 486 ms



POST A COMMENT............